<svg width="32" height="32" xmlns="http://www.w3.org/2000/svg">
 <title/>

 <g>
  <title>background</title>
  <rect fill="none" id="canvas_background" height="402" width="582" y="-1" x="-1"/>
 </g>
 <g>
  <title>Layer 1</title>
  <path id="svg_1" d="m18.87,7l-13.74,0a3.13,3.13 0 0 0 -3.13,3.13l0,11.74a3.13,3.13 0 0 0 3.13,3.13l13.74,0a3.13,3.13 0 0 0 3.13,-3.13l0,-11.74a3.13,3.13 0 0 0 -3.13,-3.13zm1.13,14.87a1.13,1.13 0 0 1 -1.13,1.13l-13.74,0a1.13,1.13 0 0 1 -1.13,-1.13l0,-11.74a1.13,1.13 0 0 1 1.13,-1.13l13.74,0a1.13,1.13 0 0 1 1.13,1.13l0,11.74z"/>
  <path id="svg_2" d="m28.577759,9.07a1.35,1.35 0 0 0 -1.53,0.47l-4.2,5.21a1.51,1.51 0 0 0 0,1.74l4.15,5.86a1.39,1.39 0 0 0 1.17,0.65a1.37,1.37 0 0 0 0.39,-0.06a1.44,1.44 0 0 0 1,-1.4l0,-11.08a1.45,1.45 0 0 0 -0.98,-1.39zm-1,10.65l-2.87,-4.05l2.87,-3.57l0,7.62z"/>
 </g>
</svg>