<svg height="512" viewBox="0 0 512 512" width="512" xmlns="http://www.w3.org/2000/svg"><g id="Filled_outline" data-name="Filled outline"><path d="m88 280h64v72h-64z" fill="#ffa912"/><path d="m190.942 354.431-46.942-10.431v-64h-48v64l-46.942 10.431a32 32 0 0 0 -25.058 31.238v102.331h192v-102.331a32 32 0 0 0 -25.058-31.238z" fill="#fec9a3"/><path d="m144 329.526v-49.526h-48v49.526a47.723 47.723 0 0 0 48 0z" fill="#feb784"/><path d="m168 248v24a48 48 0 0 1 -96 0v-24a48 48 0 0 1 96 0z" fill="#fec9a3"/><path d="m168 248v24a48 48 0 0 1 -39.93 47.32 57.633 57.633 0 0 0 14.46-38.27v-42.1a57.633 57.633 0 0 0 -14.46-38.27 48.013 48.013 0 0 1 39.93 47.32z" fill="#fec093"/><path d="m190.942 354.431-41.758-9.279-29.184 94.848-29.184-94.848-41.758 9.279a32 32 0 0 0 -25.058 31.238v102.331h192v-102.331a32 32 0 0 0 -25.058-31.238z" fill="#425b82"/><path d="m80 488h-16v-12.406c-18.66-17.684-21.363-44.211-6.078-64.418l12.758 9.648c-10.864 14.367-8.223 32.879 6.425 45.016a8 8 0 0 1 2.895 6.16z" fill="#3c5174"/><path d="m176 488h-16v-16a8 8 0 0 1 2.9-6.16c14.648-12.137 17.289-30.649 6.425-45.016l12.758-9.648c15.285 20.207 12.582 46.734-6.078 64.418z" fill="#3c5174"/><path d="m90.833 345.333-26.833 30.667 24 16-8 16 40 32z" fill="#49648e"/><path d="m149.167 345.333 26.833 30.667-24 16 8 16-40 32z" fill="#49648e"/><path d="m184 240v80a31.991 31.991 0 0 1 -32 32v-128l-32-16-32 16v128a32 32 0 0 1 -32-32v-80a64 64 0 0 1 56-63.51 65.551 65.551 0 0 1 16 0 64.017 64.017 0 0 1 56 63.51z" fill="#ffb531"/><path d="m128 176.49v35.51l-8-4-8 4v-35.51a65.551 65.551 0 0 1 16 0z" fill="#f7a116"/><path d="m408 344v-64h-64v64l-39.761 9.94a32 32 0 0 0 -24.239 31.045v103.015h192v-103.015a32 32 0 0 0 -24.239-31.045z" fill="#fec9a3"/><path d="m408 344-32 16-32-16-39.761 9.94a32 32 0 0 0 -24.239 31.045v103.015h192v-103.015a32 32 0 0 0 -24.239-31.045z" fill="#c7c7c5"/><path d="m408 323.706v-43.706h-64v43.7a47.792 47.792 0 0 0 64 0z" fill="#feb784"/><path d="m447.761 353.94-39.761-9.94-32 128-32-128-39.761 9.94a32 32 0 0 0 -24.239 31.045v103.015h192v-103.015a32 32 0 0 0 -24.239-31.045z" fill="#425b82"/><path d="m424 248v24a47.99 47.99 0 0 1 -46.51 47.97c-.49.02-.99.03-1.49.03a48 48 0 0 1 -48-48v-24a48 48 0 0 1 96 0z" fill="#fec9a3"/><path d="m424 248v24a47.99 47.99 0 0 1 -46.51 47.97 62.37 62.37 0 0 0 19.35-45.23v-45.48a62.335 62.335 0 0 0 -6.09-26.95 48.047 48.047 0 0 1 33.25 45.69z" fill="#fec093"/><path d="m424 224a32 32 0 0 0 -32-32h-32a32 32 0 0 0 -32 32v18l6.4-3.6c6.991-3.932 13.338-16.875 17.6-22.4a43.266 43.266 0 0 0 48 0c4.392 7.731 9.357 22.586 17.6 27.886l6.4 4.114v-20.572a23.335 23.335 0 0 0 -.4-3.428z" fill="#f98500"/><path d="m408 344 24 32-24 16 8 16-40 64z" fill="#49648e"/><path d="m344 344-24 32 24 16-8 16 40 64z" fill="#49648e"/><path d="m376 360-32-16 11 44z" fill="#e0e0de"/><path d="m408 344-32 16 21 28z" fill="#e0e0de"/><path d="m288 312v-64h-64v64l-54.276 10.855a32 32 0 0 0 -25.724 31.379v133.766h224v-133.766a32 32 0 0 0 -25.724-31.379z" fill="#fec9a3"/><path d="m288 293.92v-45.92h-64v45.92a55.834 55.834 0 0 0 64 0z" fill="#feb784"/><path d="m288 312-32 32-32-32-54.276 10.855a32 32 0 0 0 -25.724 31.379v133.766h224v-133.766a32 32 0 0 0 -25.724-31.379z" fill="#e0e0de"/><path d="m256 344-32-40-20.8 12.16 28.8 51.84z" fill="#ebebe9"/><path d="m256 344 32-40 20.8 12.16-28.8 51.84z" fill="#ebebe9"/><path d="m346.649 324.136c-55.585 93.281-152.549 133.386-202.649 151.253v12.611h224v-133.767a31.946 31.946 0 0 0 -21.351-30.097z" fill="#d6d6d4"/><path d="m240 360v128h32v-128l-16-16z" fill="#348fd9"/><path d="m312 192v40a56 56 0 0 1 -56 56 56.732 56.732 0 0 1 -7.42-.49 56.011 56.011 0 0 1 -48.58-55.51v-40a56 56 0 0 1 56-56 55.993 55.993 0 0 1 56 56z" fill="#fec9a3"/><path d="m312 192v40a56 56 0 0 1 -56 56 56.732 56.732 0 0 1 -7.42-.49 71.668 71.668 0 0 0 28.68-57.4v-52.22a71.416 71.416 0 0 0 -13.07-41.29 56 56 0 0 1 47.81 55.4z" fill="#fec093"/><path d="m206.4 187.2-6.4 4.8v-24a32 32 0 0 1 32-32 64 64 0 0 1 -25.6 51.2z" fill="#95573a"/><path d="m305.6 186.514 6.4 5.486v-27.429c0-20.2-14.327-36.571-32-36.571 0 23.022 9.484 44.7 25.6 58.514z" fill="#95573a"/><path d="m200 120h72a40 40 0 0 1 40 40 0 0 0 0 1 0 0h-88a24 24 0 0 1 -24-24v-16a0 0 0 0 1 0 0z" fill="#8f4d2e"/><path d="m256 344-16 16v16l16-16 16 16v-16z" fill="#3086cd"/><path d="m344 248h16v16h-16z"/><path d="m392 248h16v16h-16z"/><path d="m224 200h16v16h-16z"/><path d="m272 200h16v16h-16z"/><path d="m480 496v-111.04a40.019 40.019 0 0 0 -30.3-38.8l-33.7-8.41v-26.658a55.715 55.715 0 0 0 16-39.092v-48a40.045 40.045 0 0 0 -40-40h-32a40.045 40.045 0 0 0 -40 40v-64a48.055 48.055 0 0 0 -48-48h-72a8 8 0 0 0 -8 8v16a31.8 31.8 0 0 0 3.788 15.085 39.6 39.6 0 0 0 -3.788 16.915v64a63.836 63.836 0 0 0 24 49.935v17.475l-15.684 9.17-8.316 1.671v-70.251a72 72 0 1 0 -144 0v80a39.947 39.947 0 0 0 8.486 24.55l-9.195 2.043a39.826 39.826 0 0 0 -31.291 39.087v110.32zm-387.562-110.656-16.411-10.944 11.384-13.009 17.289 56.126-14.652-11.724 5.107-10.215a8 8 0 0 0 -2.717-10.234zm27.562-168.4 24 12v19.056h-8v16h8v39.958a32.353 32.353 0 0 1 -3.885 2.569c-.062.035-.124.07-.185.106a39.688 39.688 0 0 1 -39.86 0c-.061-.036-.123-.071-.185-.106a32.353 32.353 0 0 1 -3.885-2.569v-39.958h8v-16h-8v-19.056zm16 143.856-16 51.979-19.18-62.392a8 8 0 0 0 3.18-6.387v-18.332a56.055 56.055 0 0 0 32 0zm64 119.2v-104h-16v104h-32v-125.76c0-11.065 8.494-21.348 19.346-23.519l27.7-5.566 25.961 46.73a7.994 7.994 0 0 0 6.993 4.115v104zm32-188.64a64.415 64.415 0 0 0 48 0v9.83l-24 30-24-30zm46.157 63.484-11.437-11.438 23.209-29.006 8.077 4.722zm-30.157 125.156v-116.687l8-8 8 8v116.687zm80 0v-104h-16v104h-32v-104c.368 0 5 .25 6.993-4.115l25.961-46.73 27.71 5.568c.147.029.287.054.435.075a6.865 6.865 0 0 1 .708.175l.2.055a23.957 23.957 0 0 1 17.993 23.212v125.76zm60.286-90.285-12.286 49.241v-65.58l.016-.021zm5.01-19.986-5.145-6.86 7.849-3.926zm9.22 29.192 4.322 8.644-10.805 17.288zm3.864-15.456 5.305-21.219 8.841 11.789zm-6.38-44.409-24 12-.134-.067a39.923 39.923 0 0 0 -10.641-24.044 55.706 55.706 0 0 0 34.775-4.373zm64 45.9v95.044h-24v-56h-16v56h-47.977c.044 0 .088-.006.132-.007 5.148-.1 7.307-4.837 9.656-8.6l36.973-59.157a8 8 0 0 0 .371-7.818l-4.841-9.683 18.123-12.083a8 8 0 0 0 1.963-11.452l-10.491-13.987 17.89 4.463a24.028 24.028 0 0 1 18.201 23.284zm-61.37-83.21a40 40 0 0 1 -66.63-29.746v-24c0-.448.034-.9.052-1.351l2.27-1.276c6.71-3.774 11.758-11.744 16.213-18.775l.016-.026a51.07 51.07 0 0 0 41.986.411c3.929 8.31 8.825 18.546 16.737 23.632l2.726 1.753v19.632a39.721 39.721 0 0 1 -13.37 29.75zm-66.63-77.746a24.027 24.027 0 0 1 24-24h32a24.033 24.033 0 0 1 23.9 21.815c.1 3.123.1 8.117.1 8.117-1.9-3.239-7.737-15.582-9.044-17.883a8 8 0 0 0 -11.394-2.705 35.176 35.176 0 0 1 -39.125 0 8 8 0 0 0 -10.771 1.77c-1.469 1.9-3.013 4.341-4.648 6.922-1.423 2.246-3.2 5.051-5.018 7.547zm-16 48a55.694 55.694 0 0 0 16 39.1v2.367l-24.316-4.886-15.684-9.171v-17.481a63.856 63.856 0 0 0 24-49.929zm-20.114-104h4.114v5.487a64.615 64.615 0 0 1 -4.114-5.487zm-91.886-40h64a32.057 32.057 0 0 1 30.988 24h-78.988a16.019 16.019 0 0 1 -16-16zm0 40a23.851 23.851 0 0 1 .368-4.093 31.787 31.787 0 0 0 6.464 2.748 55.781 55.781 0 0 1 -6.832 8.5zm0 64v-36l3.241-2.431a72.176 72.176 0 0 0 21.114-25.351c.026-.051.057-.114.081-.165l.025-.053h48.939a79.855 79.855 0 0 0 18.98 24.538l3.62 3.127v36.335a47.87 47.87 0 0 1 -20.623 39.391 47.833 47.833 0 0 1 -54.823-.049 47.829 47.829 0 0 1 -20.554-39.342zm14.071 82.4 23.209 29.011-11.437 11.438-19.849-35.727zm-46.071-74.4v73.466s-13.43 3.013-16 4.163v-93.629a8 8 0 0 0 -4.422-7.155l-27.578-13.789v-18.475a56.078 56.078 0 0 1 48 55.419zm-112 80v-80a55.893 55.893 0 0 1 48-55.428v18.484l-27.578 13.789a8 8 0 0 0 -4.422 7.155v115.325l-4.595 1.021a23.857 23.857 0 0 1 -11.405-20.346zm-13.225 42.209 18.192-4.034-10.988 12.557a8 8 0 0 0 1.583 11.924l18.124 12.083-4.841 9.683a8 8 0 0 0 2.155 9.825l39.373 31.628c3.425 2.735 8.75 1.875 11.417-.057 3.69-2.675 7.525-6.226 10.208-8.373v42.555h-55.998v-8a8 8 0 0 0 -2.9-6.161c-14.649-12.135-17.291-30.646-6.423-45.013l-12.757-9.653c-15.286 20.211-12.582 46.738 6.08 64.427v4.4h-32v-94.32a23.914 23.914 0 0 1 18.775-23.471z"/></g></svg>