<svg height="512" viewBox="0 0 512 512" width="512" xmlns="http://www.w3.org/2000/svg"><g id="Filled_outline" data-name="Filled outline"><path d="m240 304h-216v-192h56l16 16h144z" fill="#ffa912"/><path d="m24 168h216v136h-216z" fill="#ffb531"/><path d="m232 168-40-40h-51l-45 40z" fill="#f7a116"/><path d="m80 168 72-64 64 64z" fill="#e0e0de"/><path d="m440 72a48 48 0 0 1 48 48v120a0 0 0 0 1 0 0 48 48 0 0 1 -48-48v-120a0 0 0 0 1 0 0z" fill="#f27900"/><path d="m392 280v-64h-64v64h-48v120h160v-120z" fill="#fec9a3"/><path d="m364.824 256a43.894 43.894 0 0 0 27.176-9.81v-30.19h-64v30.19a43.894 43.894 0 0 0 27.176 9.81z" fill="#feb784"/><path d="m440 280h-32v72h-96v-72h-35.606a40 40 0 0 0 -37.761 26.8l-50.223 143.718a27.93 27.93 0 0 0 13.758 34.526 27.93 27.93 0 0 0 37.832-13.239l34.41-82.065c-5.405 19.471-.533 41.452 13.59 58.26v48h192v-176a40 40 0 0 0 -40-40z" fill="#e0e0de"/><path d="m440 280h-32l-48 136-48-136h-35.606a40 40 0 0 0 -37.761 26.8l-50.223 143.718a27.93 27.93 0 0 0 13.758 34.526 27.93 27.93 0 0 0 37.832-13.239l34.223-81.618c-5.384 19.359-.239 41.133 13.777 57.813v48h192v-176a40 40 0 0 0 -40-40z" fill="#3d4d63"/><path d="m480 325.747c-40.973 94.989-115.135 146.746-158.317 170.253h158.317z" fill="#374559"/><path d="m432 112v56a72.006 72.006 0 0 1 -72 72 71.157 71.157 0 0 1 -9.85-.68h-.01a71.984 71.984 0 0 1 -62.14-71.32v-56a64 64 0 0 1 64-64h16c1.53 0 3.05.05 4.56.17a64 64 0 0 1 59.17 57.88q.27 2.94.27 5.95z" fill="#fec9a3"/><path d="m432 112v56a72.006 72.006 0 0 1 -72 72 71.157 71.157 0 0 1 -9.85-.68 88 88 0 0 0 49.85-79.32v-48a87.688 87.688 0 0 0 -25.78-62.22c-.55-.55-1.1-1.08-1.66-1.61a63.983 63.983 0 0 1 59.44 63.83z" fill="#fec093"/><path d="m431.89 109.78c-11.56-9.71-19.57-22.86-23.91-37.78-1.88 0-6.95 0-13.59-.01a58.383 58.383 0 0 0 -58.39 58.34 86.749 86.749 0 0 1 -39.07 72.39h-.01a71.534 71.534 0 0 1 -8.92-34.72v-56a64 64 0 0 1 64-64h16c1.53 0 3.05.05 4.56.17a64 64 0 0 1 59.17 57.88c.06 1.27.12 2.51.16 3.73z" fill="#fec093"/><path d="m312 280-40 32 32 24-8 24 64 56z" fill="#4c5d72"/><path d="m408 280 40 32-32 24 8 24-64 56z" fill="#4c5d72"/><path d="m432 120h8a24 24 0 0 1 24 24 24 24 0 0 1 -24 24h-8a0 0 0 0 1 0 0v-48a0 0 0 0 1 0 0z" fill="#feb784"/><rect fill="#d6d6d4" height="40" rx="20" width="60" x="288" y="120"/><rect fill="#d6d6d4" height="40" rx="20" width="60" x="372" y="120"/><path d="m186.23 459.01 5.77-75.01h48v77.075a26.925 26.925 0 0 1 -26.925 26.925 26.924 26.924 0 0 1 -26.845-28.99z" fill="#4c5d72"/><path d="m210.821 267.3a15.562 15.562 0 0 0 -10.145 22.057l7.324 14.643h-28.669a48 48 0 0 1 -21.466-5.067l-7.972-3.986a9.6 9.6 0 0 0 -13.893 8.586v22.578a16 16 0 0 0 8.845 14.311l13.02 6.511a48 48 0 0 0 21.466 5.067h60.669v-48l-10.955-27.387a15.562 15.562 0 0 0 -18.224-9.313z" fill="#fec9a3"/><path d="m192 352h48v32h-48z" fill="#e0e0de"/><path d="m448 104v16h-16l-2.5-1.25c-15.39-7.7-26.54-20.24-33.36-35.41a86.441 86.441 0 0 1 -4.16-11.33c-1.37-.01-4.43-.01-8.56-.01-1.54 0-3.23 0-5.03-.01a58.383 58.383 0 0 0 -58.39 58.34 86.856 86.856 0 0 1 -48 77.67v-104a80 80 0 0 1 80-80h16a80 80 0 0 1 80 80z" fill="#f98500"/><path d="m413.82 38.42-17.68 44.92a86.441 86.441 0 0 1 -4.16-11.33c-1.37-.01-4.43-.01-8.56-.01l16.3-41.46a78.944 78.944 0 0 1 14.1 7.88z" fill="#e67007"/><path d="m24 344h128v136h-128z" fill="#60d1e0"/><path d="m152 389-91 91h91z" fill="#5ac6d4"/><path d="m24 344h128v40h-128z" fill="#f35244"/><path d="m24 384h128v16h-128z" fill="#5ac6d4"/><path d="m446.582 64.421a88.1 88.1 0 0 0 -78.582-48.421h-16a88.1 88.1 0 0 0 -88 88v104a8 8 0 0 0 3.794 6.806c1.285.794 6.655.914 7.784.349a96.272 96.272 0 0 0 14.285-8.769 79.226 79.226 0 0 0 30.137 30.863v34.751h-43.6a48 48 0 0 0 -28.4 9.288v-153.288a8 8 0 0 0 -8-8h-60.686l-21.657-21.657a8 8 0 0 0 -10.972-.322l-24.727 21.979h-22.644l-13.657-13.657a8 8 0 0 0 -5.657-2.343h-56a8 8 0 0 0 -8 8v192a8 8 0 0 0 8 8h104v16h-16v8h-48v-8h-16v8h-24a8 8 0 0 0 -8 8v136a8 8 0 0 0 8 8h128a8 8 0 0 0 8-8v-123.455a56.283 56.283 0 0 0 19.331 3.455h4.669v23.691l-5.747 74.709a34.925 34.925 0 0 0 34.822 37.6c.273 0 .543-.014.814-.021h.053c.307.021.546.021.7.021a36.071 36.071 0 0 0 32.615-20.789q.065-.139.123-.279l19.82-47.287a73.762 73.762 0 0 0 12.126 23.225l.674 45.25 16-.24-.72-48a8 8 0 0 0 -1.865-5.016c-11.925-14.241-16.248-32.926-11.6-50.158l5.558-13.2a8 8 0 0 0 -14.255-7.184 62.934 62.934 0 0 0 -6.455 15.143l-18.663 44.562v-126.666a31.79 31.79 0 0 1 28.4-17.361h12.794l-22.194 17.753a8 8 0 0 0 .2 12.647l27.387 20.54-6.176 18.53a8 8 0 0 0 2.321 8.551l61.268 53.609v76.37h16v-76.37l61.268-53.609a8 8 0 0 0 2.321-8.551l-6.176-18.53 27.387-20.54a8 8 0 0 0 .2-12.647l-22.194-17.753h9.194a32.036 32.036 0 0 1 32 32v176h16v-176a48.055 48.055 0 0 0 -48-48h-40v-34.743a79.532 79.532 0 0 0 32.791-35.931 56.081 56.081 0 0 0 55.209 46.674 8 8 0 0 0 8-8v-120a56.019 56.019 0 0 0 -49.418-55.579zm-214.582 71.579v24h-12.686l-24-24zm-80.323-21.009 45.01 45.009h-95.645zm-74.991 5.009 13.657 13.657a8 8 0 0 0 5.657 2.343h7.958l-27 24h-44.958v-40zm-44.686 56h200v90.533a23.554 23.554 0 0 0 -38.479 26.4l1.535 3.067h-15.725a40.2 40.2 0 0 1 -17.888-4.223l-7.972-3.986a17.629 17.629 0 0 0 -23.792 8.209h-97.679zm0 176h16v8h16v-8h48v8h16v-8h16v24h-112zm0 120v-80h112v80zm129.443-132.223-13.021-6.51a7.958 7.958 0 0 1 -4.422-7.156v-22.578a1.534 1.534 0 0 1 .759-1.361 1.526 1.526 0 0 1 1.556-.07l7.973 3.986a56.284 56.284 0 0 0 25.043 5.912h28.669a8 8 0 0 0 7.155-11.578l-7.323-14.648a7.56 7.56 0 0 1 4.929-10.717 7.587 7.587 0 0 1 8.855 4.527l10.384 25.957v38.459h-52.669a40.2 40.2 0 0 1 -17.888-4.223zm70.557 20.223v16h-32v-16zm-37.793 99.624 5.2-67.624h32.593v69.075a18.935 18.935 0 0 1 -17.513 18.853c-.163-.006-.326-.012-.487-.007a7.69 7.69 0 0 0 -1.153.067 18.9 18.9 0 0 1 -18.64-20.364zm172.5-331.624h-13.42a27.754 27.754 0 0 0 -21.919-15.793 50.426 50.426 0 0 1 47-32.213h.013 7.785a84.794 84.794 0 0 0 20.3 32h-14.466a28.034 28.034 0 0 0 -25.293 16.006zm-38.707 2.334c0-.78.022-1.557.057-2.331a12.034 12.034 0 0 1 9.259 4.408 11.885 11.885 0 0 1 2.684 7.589 11.938 11.938 0 0 1 -12 12h-2.48a95.864 95.864 0 0 0 2.48-21.666zm64-2.334h20a12 12 0 0 1 0 24h-20a12 12 0 0 1 0-24zm48 32v-32a16 16 0 0 1 0 32zm0-56v8l-6.879-.384-.041-.02c-15.528-7.764-26.75-21.3-32.607-39.239l10.45-26.126a71.936 71.936 0 0 1 29.077 57.769zm-160 0a72.081 72.081 0 0 1 72-72h16a71.559 71.559 0 0 1 28.946 6.1l-10.361 25.9h-8.2-.019a66.365 66.365 0 0 0 -66.366 66.334 78.337 78.337 0 0 1 -32 63.441zm112 184h4.693l-19.765 56h-33.856l-19.765-56h4.693a8 8 0 0 0 8-8v-35.7a79.7 79.7 0 0 0 48 0v35.7a8 8 0 0 0 8 8zm-32 103.963-11.281-31.963h22.562zm-54.728-34.481 6.317-18.952a8 8 0 0 0 -2.789-8.93l-23.738-17.8 23.138-18.518 34.094 96.6zm105.928-27.882a8 8 0 0 0 -2.789 8.93l6.317 18.952-37.028 32.398 34.094-96.6 23.144 18.52zm-22.778-104.275a63.88 63.88 0 0 1 -86.18-29.919 93.839 93.839 0 0 0 18.032-27.406h7.726a27.93 27.93 0 0 0 27.717-24h8.573a28.039 28.039 0 0 0 27.71 24h20a27.838 27.838 0 0 0 12-2.707v2.707a63.645 63.645 0 0 1 -35.578 57.325zm91.578 5.875a40.071 40.071 0 0 1 -32-39.2v-17.013a31.989 31.989 0 0 0 8-58.682v-12.305a87.883 87.883 0 0 0 -2.72-21.742 40.179 40.179 0 0 1 26.72 37.742z"/><path d="m424 448v48h16v-45.18c17.308-22.391 20.2-52.969 7.02-77.026l-14.033 7.687c10.494 19.158 7.636 43.821-7.112 61.373a8 8 0 0 0 -1.875 5.146z"/><path d="m360 184a8.009 8.009 0 0 1 -8-8h-16a24 24 0 0 0 48 0h-16a8.009 8.009 0 0 1 -8 8z"/><path d="m320 432h16v16h-16z"/><path d="m48 408h16v16h-16z"/><path d="m80 408h16v16h-16z"/><path d="m112 408h16v16h-16z"/><path d="m48 440h16v16h-16z"/><path d="m80 440h16v16h-16z"/><path d="m112 440h16v16h-16z"/><path d="m48 192h16v16h-16z"/><path d="m48 224h16v56h-16z"/></g></svg>